<?xml version="1.0" standalone="no"?><!DOCTYPE svg PUBLIC "-//W3C//DTD SVG 1.1//EN" "http://www.w3.org/Graphics/SVG/1.1/DTD/svg11.dtd"><svg t="1502777444523" class="icon" style="" viewBox="0 0 1024 1024" version="1.1" xmlns="http://www.w3.org/2000/svg" p-id="1110" xmlns:xlink="http://www.w3.org/1999/xlink" width="64" height="64"><defs><style type="text/css"></style></defs><path d="M667.16 684.93v69.23h103.39v-69.23z m0-184.67v69.23h103.39v-69.23zM408.7 684.93v69.23h103.39v-69.23z m-172.31 0v69.23h103.39v-69.23zM408.7 500.26v69.23h103.39v-69.23z m-172.31 0v69.23h103.39v-69.23zM408.7 315.6v69.23h103.39V315.6z m-172.31 0v69.23h103.39V315.6z m334.28-58.67v627.34h38.6V267.88l281.9 80v538.85h68.92V956h-896v-69.27H133l2.76-722.15L570 68.08v188.65z" p-id="1111" fill="#3c9edd"></path></svg>
