<?xml version="1.0" standalone="no"?><!DOCTYPE svg PUBLIC "-//W3C//DTD SVG 1.1//EN" "http://www.w3.org/Graphics/SVG/1.1/DTD/svg11.dtd"><svg t="1500012870934" class="icon" style="" viewBox="0 0 1024 1024" version="1.1" xmlns="http://www.w3.org/2000/svg" p-id="3256" id="mx_n_1500012870936" xmlns:xlink="http://www.w3.org/1999/xlink" width="64" height="64"><defs><style type="text/css"></style></defs><path d="M201.099622 379.852284c0 92.25003 92.806709 239.135402 92.806709 239.135402l218.290655 340.856132 205.878974-340.856132c0 0 105.223506-146.081053 105.223506-239.135402 0-172.594917-139.307789-312.727491-311.103504-312.727491C340.402295 67.124793 201.099622 207.258391 201.099622 379.852284L201.099622 379.852284zM363.412358 378.228297c0-82.246189 66.543555-148.789745 148.783605-148.789745S660.987754 295.982108 660.987754 378.228297c0 82.234933-66.550719 148.784628-148.790768 148.784628S363.412358 460.46323 363.412358 378.228297L363.412358 378.228297zM363.412358 378.228297" p-id="3257" stroke="#fff" fill="#ff4444"></path></svg>
